# xmcd
#
# Track frame offsets:
#	150
#	10893
#	21118
#	29535
#	39659
#	48565
#	60650
#	72262
#	85971
#	97221
#	106078
#	115842
#	128622
#
# Disc length: 1844 seconds
# Revision: 1
# Processed by: cddbd v1.5.2PL0 Copyright (c) Steve Scherf et al.
# Submitted via: dBpowerAMP V12.0
#
DISCID=ab07320d
DTITLE=Johnny Cash - The Fabulous Johnny Cash
DYEAR=1958
DGENRE=Country
TTITLE0=Run Softly, Blue River
TTITLE1=Frankie's Man, Johnny
TTITLE2=That's All Over
TTITLE3=The Troubadour
TTITLE4=One More Ride
TTITLE5=That's Enough
TTITLE6=I Still Miss Someone
TTITLE7=Don't Take Your Guns to Town
TTITLE8=I'd Rather Die Young
TTITLE9=Pickin' Time
TTITLE10=Shepherd of My Heart
TTITLE11=Suppertime
TTITLE12=Oh, What a Dream
EXTD=
EXTT0=
EXTT1=
EXTT2=
EXTT3=
EXTT4=
EXTT5=
EXTT6=
EXTT7=
EXTT8=
EXTT9=
EXTT10=
EXTT11=
EXTT12=
PLAYORDER=
